<svg width="40" height="40" viewBox="0 0 40 40" fill="none" xmlns="http://www.w3.org/2000/svg">
<path d="M10 18.3335H16.6667M13.3333 15.0002V21.6668M25 20.0002H25.0167M30 16.6668H30.0167M28.8667 8.3335H11.1333C9.4838 8.33388 7.89298 8.94579 6.66839 10.0509C5.4438 11.1561 4.67241 12.676 4.50333 14.3168C4.49333 14.4035 4.48667 14.4852 4.475 14.5702C4.34 15.6935 3.33333 24.0935 3.33333 26.6668C3.33333 27.9929 3.86012 29.2647 4.7978 30.2024C5.73548 31.14 7.00725 31.6668 8.33333 31.6668C10 31.6668 10.8333 30.8335 11.6667 30.0002L14.0233 27.6435C14.6483 27.0183 15.496 26.667 16.38 26.6668H23.62C24.504 26.667 25.3517 27.0183 25.9767 27.6435L28.3333 30.0002C29.1667 30.8335 30 31.6668 31.6667 31.6668C32.9927 31.6668 34.2645 31.14 35.2022 30.2024C36.1399 29.2647 36.6667 27.9929 36.6667 26.6668C36.6667 24.0918 35.66 15.6935 35.525 14.5702C35.5133 14.4868 35.5067 14.4035 35.4967 14.3185C35.328 12.6773 34.5568 11.157 33.3321 10.0516C32.1075 8.94606 30.5165 8.33392 28.8667 8.3335Z" stroke="#FBB00E" stroke-width="2" stroke-linecap="round" stroke-linejoin="round"/>
</svg>
