<svg width="37" height="37" viewBox="0 0 37 37" fill="none" xmlns="http://www.w3.org/2000/svg">
<path d="M17.0328 10.8948C23.1663 10.8538 29.1075 13.0341 33.7586 17.0328M18.4138 18.4138C16.8328 20.5389 14.832 22.3165 12.5355 23.6363C10.239 24.9561 7.69589 25.79 5.0638 26.0862M18.4138 18.4138C21.0411 18.7275 23.5779 19.5688 25.872 20.8873C28.166 22.2057 30.1701 23.9741 31.7638 26.0862M18.4138 18.4138C16.4177 13.4936 16.4177 7.98916 18.4138 3.06897M25.7793 20.869C22.733 26.2607 17.8216 30.3535 11.969 32.3776M18.4138 3.06897C9.93908 3.06897 3.06897 9.93908 3.06897 18.4138C3.06897 26.8885 9.93908 33.7586 18.4138 33.7586C26.8885 33.7586 33.7586 26.8885 33.7586 18.4138C33.7586 9.93908 26.8885 3.06897 18.4138 3.06897ZM9.66725 5.83104C8.46703 11.8722 9.50318 18.1436 12.5828 23.4776" stroke="#FBB00E" stroke-width="2" stroke-linecap="round" stroke-linejoin="round"/>
</svg>
